# xmcd
#
# Track frame offsets:
#	150
#	9975
#	21100
#	32231
#	44387
#	56319
#	68067
#	77575
#	90795
#	101648
#	112763
#	123493
#
# Disc length: 1794 seconds
#
# Revision: 1
# Processed by: cddbd v1.5.2PL0 Copyright (c) Steve Scherf et al.
# Submitted via: audiograbber 1.83.01
#
DISCID=8207000c
DTITLE=Roy Drusky - Roy Drusky´s Greatest Hits
DYEAR=1900
DGENRE=Country
TTITLE0=White lightnin´n express
TTITLE1=Pick of the week
TTITLE2=(From now on all my friends are gonna be) Strangers
TTITLE3=All for the love of a girl
TTITLE4=Lonely thing called me
TTITLE5=Another
TTITLE6=Peel me a ´nanner
TTITLE7=Yesterday
TTITLE8=So much got lost
TTITLE9=Anymore
TTITLE10=Room across the Hall
TTITLE11=Three hearts in a tangle
EXTD=
EXTT0=
EXTT1=
EXTT2=
EXTT3=
EXTT4=
EXTT5=
EXTT6=
EXTT7=
EXTT8=
EXTT9=
EXTT10=
EXTT11=
PLAYORDER=
